/* XPM */
static char *result[] = {
/* columns rows colors chars-per-pixel */
"32 32 12 1 ",
"  c #06050D",
". c #6E2727",
"X c #4A5462",
"o c #893A34",
"O c #A05848",
"+ c #C87858",
"@ c #F0A070",
"# c #6D758D",
"$ c #9BABB2",
"% c #C7DCD0",
"& c white",
"* c None",
/* pixels */
"********************************",
"********************************",
"********************************",
"********************************",
"********************************",
"********************************",
"********************************",
"********************************",
"********************************",
"********************************",
"***                           **",
"** %%%%$$$$$$$$$#%%%%$$$$$$$$$ *",
"* %%%%$$$$$$$$$#%%%%$$$$$$$$$$# ",
"* %%%$oOOoOOoOOo%%%$.o.oo.o.### ",
"* %%%Oo@+o@+o@+o%%%.OOoOOoOOo## ",
"* %%%+o@+O@+O@+o%%%oOOoOOoOOo## ",
"* %%%+o@+O++O++O%%%oOOoOOoOOo## ",
"* %%%+O++O++O++O%%%oOOoOOoOOo## ",
"* %%%+O++O++O++O%%%oOOoOOoOOo## ",
"* %%%+O++O++O++O%%%oOOoOOoOOo## ",
"* %%%+o++O++O++O%%%oOOoOOoOOo## ",
"* %%%+o++o++o++o%%%oOOoOOoOOo## ",
"* %%%OoOOoO+o+Oo%%%oOOoOOoOOo## ",
"* $$$O&&&%%OoOOo$$$.OO.OO.OO.XX ",
" %%%%$&   %$%%%%%%%%$$$$$$$$$$$ ",
" %%%%$%   %$%%%%%%%%$$$$$$$$$$$ ",
" %%%%$%$ $%$%%%%%%%%$$$$$$$$$$$ ",
"* ###o$%%%$OoOOo###.oo.oo.oo.XX ",
"* $$$OoOOoO+O++o$$$oOOoOOoOOo## ",
"* %%%Oo++O++O++o%%%oOOoOOoOOo## ",
"* %%%OoOOoOOoOOo%%%.oo.oo.oo.XX ",
"*                               "
};
