/* XPM */
static char *result[] = {
/* columns rows colors chars-per-pixel */
"32 32 14 1 ",
"  c #06050D",
". c #333941",
"X c #4A5462",
"o c #1F242B",
"O c #C7DCD0",
"+ c #9BABB2",
"@ c #6D758D",
"# c #893A34",
"$ c #A05848",
"% c #6E2727",
"& c #F0A070",
"* c #C87858",
"= c white",
"- c black",
/* pixels */
"                                ",
" ..XXX.oooooo     o....o.......o",
" .....ooooooo    oooooo.........",
" X....oooooooo   oooooo.........",
" X......ooooooo  ooooo..........",
" .......oooooooo  ooo..........X",
" ....oo.....oooo ...............",
" ....oo........o oo...........oo",
"                                ",
"......oo o.XXX.XXXXX.... o.XXXX.",
"...                           ..",
".. OOOO+++++++++@OOOO+++++++++ .",
". OOOO+++++++++@OOOO++++++++++@ ",
". OOO+#$$#$$#$$#OOO+%#%##%#%@@@ ",
". OOO$#&*#&*#&*#OOO%$$#$$#$$#@@ ",
". OOO*#&*$&*$&*#OOO#$$#$$#$$#@@ ",
"  OOO*#&*$**$**$OOO#$$#$$#$$#@@ ",
"  OOO*$**$**$**$OOO#$$#$$#$$#@@ ",
"  OOO*$**$**$**$OOO#$$#$$#$$#@@ ",
"  OOO*$**$**$**$OOO#$$#$$#$$#@@ ",
"  OOO*#**$**$**$OOO#$$#$$#$$#@@ ",
"  OOO*#**#**#**#OOO#$$#$$#$$#@@ ",
"  OOO$#$$#$*#*$#OOO#$$#$$#$$#@@ ",
"  +++$===OO$#$$#+++%$$%$$%$$%XX ",
" OOOO+=   O+OOOOOOOO+++++++++++ ",
" OOOO+O   O+OOOOOOOO+++++++++++ ",
" OOOO+O+ +O+OOOOOOOO+++++++++++ ",
". @@@#+OOO+$#$$#@@@%##%##%##%XX ",
". +++$#$$#$*$**#+++#$$#$$#$$#@@ ",
". OOO$#**$**$**#OOO#$$#$$#$$#@@ ",
". OOO$#$$#$$#$$#OOO%##%##%##%XX ",
".                               "
};
