/* XPM */
static char *result[] = {
/* columns rows colors chars-per-pixel */
"32 32 3 1 ",
"  c #06050D",
". c #1F242B",
"X c None",
/* pixels */
"XXXXXXXXXXXXXXXXXXXXXXXXXXXXXXXX",
"X.......... ........ ..........X",
"X.......... ........ ..........X",
"X.......... ........ ..........X",
"X......                  ......X",
"X...... ..    ....    .. ......X",
"X       ..    ....    ..       X",
"X   ..  ..    ....    ..  ..   X",
"X   ..  ..    ....    ..  ..   X",
"X   ..  ..... ....... ..  ..   X",
"X...... ..... ....... ... .....X",
"X...... ..    ....    ... .....X",
"X   ..  ..    ....    ..  ..   X",
"X   ..  ..    ....    ..  ..   X",
"X   ..  ..    ....    ..  ..   X",
"X   ..  ..   ......   ..  ..   X",
"X   ..  ..   .    .   ..  ..   X",
"X   ..  ..   .    .   ..  ..   X",
"X   ..  ..   .    .   ..  ..   X",
"X   ..  ..   ..  ..   ..  ..   X",
"X   ..  ..    ....    ..  ..   X",
"X   ..  ..    ....    ..  ..   X",
"X   ..  ..    ....    ..  ..   X",
"X   ..  ..... ....... ..  ..   X",
"X...... ..... ....... ... .....X",
"X...... ..    ....    ... .....X",
"X   ..  ..    ....    ..  ..   X",
"X   ..  ..    ....    ..  ..   X",
"X   ..  ..    ....    ..  ..   X",
"X   ..  ..    ....    ..  ..   X",
"X   ..  ..    ....    ..  ..   X",
"X   ..  ..    ....    ..  ..   X"
};
