/* XPM */
static char *result[] = {
/* columns rows colors chars-per-pixel */
"32 32 142 2 ",
"   c #010107",
".  c #06050D",
"X  c #08070F",
"o  c #090A0F",
"O  c #0C0C13",
"+  c #1F0716",
"@  c #101017",
"#  c #14151B",
"$  c #17191E",
"%  c #250E18",
"&  c #29181C",
"*  c #37151C",
"=  c #351A1D",
"-  c #1C1E25",
";  c #2E1D23",
":  c #3A1E22",
">  c #1C2127",
",  c #1F242B",
"<  c #21262C",
"1  c #25292E",
"2  c #332227",
"3  c #382325",
"4  c #37282D",
"5  c #222530",
"6  c #262B32",
"7  c #292D34",
"8  c #2C3134",
"9  c #2D333A",
"0  c #3F3436",
"q  c #31363D",
"w  c #343A3F",
"e  c #5B1E23",
"r  c #691828",
"t  c #43292C",
"y  c #5D2725",
"u  c #5D2C2B",
"i  c #4A3337",
"p  c #423739",
"a  c #4A3B3D",
"s  c #53383A",
"d  c #6F2126",
"f  c #632F2D",
"g  c #73252A",
"h  c #7C242C",
"j  c #683839",
"k  c #333941",
"l  c #3B3D44",
"z  c #394044",
"x  c #3D444B",
"c  c #474749",
"v  c #40484E",
"b  c #484E4F",
"n  c #594147",
"m  c #444C52",
"M  c #4B4E55",
"N  c #434B59",
"B  c #4D5455",
"V  c #4E565C",
"C  c #4D5858",
"Z  c #50575F",
"A  c #545D5C",
"S  c #61474D",
"D  c #684748",
"F  c #705F5C",
"G  c #4A5462",
"H  c #535C63",
"J  c #576162",
"K  c #596264",
"L  c #576069",
"P  c #586169",
"I  c #686865",
"U  c #626C6B",
"Y  c #6C6C69",
"T  c #616D77",
"R  c #657371",
"E  c #6B7573",
"W  c #6B767A",
"Q  c #787672",
"!  c #727D7B",
"~  c #862327",
"^  c #8E222E",
"/  c #992629",
"(  c #8F2D31",
")  c #962E32",
"_  c #B72D2F",
"`  c #A12F31",
"'  c #A92D30",
"]  c #BC2A3D",
"[  c #C22B3D",
"{  c #C23134",
"}  c #DD353D",
"|  c #D73D3F",
" . c #E93A3B",
".. c #944B4C",
"X. c #854E52",
"o. c #AF5457",
"O. c #86696C",
"+. c #8B7973",
"@. c #A96165",
"#. c #7E817C",
"$. c #93837D",
"%. c #717C83",
"&. c #7B8683",
"*. c #7B8986",
"=. c #7D8B8A",
"-. c #7E8D92",
";. c #8C8584",
":. c #84928D",
">. c #818E92",
",. c #899791",
"<. c #8B9995",
"1. c #8D9E9A",
"2. c #979496",
"3. c #A29096",
"4. c #95A59E",
"5. c #8E9DA2",
"6. c #96A5A1",
"7. c #9CABA7",
"8. c #95A4AA",
"9. c #99AAAA",
"0. c #A2B2AB",
"q. c #A6B8AF",
"w. c #A4B5B6",
"e. c #ABBCB4",
"r. c #A5B6BA",
"t. c #ABBDB9",
"y. c #B1BCB7",
"u. c #B2C5BC",
"i. c #B6C9BF",
"p. c #B2C5C1",
"a. c #BACDC3",
"s. c #BDD2C7",
"d. c #BED2CA",
"f. c #C1D5CB",
"g. c #C5DACE",
"h. c #C7DCD0",
"j. c #C9DED2",
"k. c #CCE1D5",
"l. c #D4E4DB",
"z. c #DBE9E1",
"x. c #E9F1EC",
"c. c #F8FBF9",
/* pixels */
". . . . . . . . . . . . . . . . . . . . . . . . . . . . . . . . ",
". k k G G G k , , , , , , . . . . . , k k k k , k k k k k k k , ",
". k k k k k , , , , , , , . . . . , , , , , < k k k k k k k k k ",
". G k k k k , , , , , , , , . . . , , , < , , k k k k k k k k k ",
". G k k k k k k , , , , , , , . . , , , , , k k k k k k k k k k ",
". k k k k k k k , , , , , , , , . . , , , k k k k k k k k k q G ",
". k k k k , , k k k k k , , , , . k k k k k k k k k k k k k k k ",
". q k k k , , k k k k k x m m k - k w m m v k k k k k k k k , , ",
". . . . . . . . . . . - H =.:.:.:.:.:.:.:.E 6 O . . . . . . . . ",
"k k k k k k , , . , k T 9.d.h.g.g.g.g.g.g.i.<.W 7 5 k G G G G k ",
"k k k k k q , , . < x W u.l.z.l.j.g.j.j.j.g.s.u.%.v k k k k k k ",
"k k k k k k , , . k H 5.d.x.c.x.k.g.g.j.g.j.g.g.t.-.v k k k k k ",
"k k k k k k k , . k L 9.d.x.c.x.k.j.j.j.j.j.g.j.f.9.m k k k k k ",
"k k k k k k k k X 5 L 9.d.z.z.l.j.f.s.g.g.g.j.g.f.1.m k k k k k ",
"k k k k k k k , . < L 9.d.h.h.h.u.#.E 4.g.j.j.g.4.J l k k k k k ",
"k k k k k k , , . < P 8.p.f.h.u.#.< # E s.k.f.4.b $ > k k k k G ",
". . . . . . . . . X l 5.r.d.h.<.,   o U s.k.i.A @   . . . . . . ",
". , k G G G G G k k H >.5.u.h.<.8 $ , #.g.k.i.A # 1 N k k k , k ",
". k k k k k k k k k l l M >.u.e.<.=.:.0.s.j.i.4.A 9 w k k k k , ",
". G k k q k k k k k i d g S K :.s.k.g.4.<.q.,.0.=.z k k k k k k ",
". G k k k k k k k Z O.o.) d e D &.1.e.E J ,.C &.=.x k k k k q k ",
". k k k k k k l Z >.y.2.S h _ ` u s Q C x R z O.;.N z k k k k k ",
". , k k k k q v >.u.f.t.>.S ( { _ ' j 2 ; 4 3 ..3.Y x k k k k G ",
". , , k k k k v >.w.w.r.8.%.n h [ } _ / / / ` @.3.%.x k k k k k ",
". . . . . . . O k H H G Z V 7 % r ] }  . . .| X.Z l @ . . . . . ",
"G k k k , , , < @ k B B Z B 7 o + r ^ / / / ~ : 8 q 6 k G k k k ",
", , , , k k k , O ! q.u.u.u.I & % & = t a i : & I :.m k k k k k ",
"k k k k k k k k @ 1.g.k.k.i.+.f y y u F -.$.j f $.7.M k k k k k ",
"k k k k k k k k O *.a.f.u.W 0 : * = : p B c 3 : Q 6.m k k k k k ",
"k k k k k k k k O K *.&.U 1 . @ - - - - # X . O w P x k k k k k ",
"k k k k k k k k . 5 x q $ o O , 9 q q q < O . @ O l k k k k k k ",
"k k k k k k k , . , < 7 O X - 9 k k k k < O O < . < k k k k k k "
};
