/* XPM */
static char *result[] = {
/* columns rows colors chars-per-pixel */
"32 32 140 2 ",
"   c #010107",
".  c #05040C",
"X  c #08070F",
"o  c #090A0F",
"O  c #0D0D13",
"+  c #1F0716",
"@  c #101116",
"#  c #141519",
"$  c #16181C",
"%  c #250F15",
"&  c #250C1A",
"*  c #29181C",
"=  c #3B171D",
"-  c #35191C",
";  c #3C1A1F",
":  c #32131B",
">  c #2E1D23",
",  c #3B1E22",
"<  c #232629",
"1  c #272A2D",
"2  c #332227",
"3  c #382325",
"4  c #37282D",
"5  c #2A2E34",
"6  c #2D3133",
"7  c #3F3436",
"8  c #5B1E23",
"9  c #691828",
"0  c #771E22",
"q  c #43292C",
"w  c #5D2725",
"e  c #59272B",
"r  c #5D2C2B",
"t  c #483537",
"y  c #433739",
"u  c #4A3B3D",
"i  c #53383A",
"p  c #632F2D",
"a  c #7C242C",
"s  c #73252A",
"d  c #683839",
"f  c #3B3E41",
"g  c #413E46",
"h  c #3C4447",
"j  c #3E4749",
"k  c #474749",
"l  c #474D4E",
"z  c #594147",
"x  c #5F454C",
"c  c #4B4E52",
"v  c #4D5556",
"b  c #4E565C",
"n  c #4D5858",
"m  c #545C5B",
"M  c #61474D",
"N  c #684748",
"B  c #705F5C",
"V  c #515961",
"C  c #5A6264",
"Z  c #646E6C",
"A  c #6E6E6B",
"S  c #67726F",
"D  c #657371",
"F  c #6B7573",
"G  c #69737B",
"H  c #787774",
"J  c #7C7873",
"K  c #727D7A",
"L  c #862327",
"P  c #8E222E",
"I  c #992629",
"U  c #8F2D31",
"Y  c #962E32",
"T  c #9D3033",
"R  c #B72D2F",
"E  c #A12F31",
"W  c #A92D30",
"Q  c #B92B30",
"!  c #BC2A3D",
"~  c #C22B3D",
"^  c #C23134",
"/  c #D73D3F",
"(  c #DD353D",
")  c #E1373D",
"_  c #E93A3B",
"`  c #954B4C",
"'  c #885054",
"]  c #B95659",
"[  c #827471",
"{  c #8B7973",
"}  c #A96165",
"|  c #7E817C",
" . c #94837D",
".. c #717C83",
"X. c #7B8581",
"o. c #84928D",
"O. c #828E91",
"+. c #879691",
"@. c #899791",
"#. c #8C9994",
"$. c #87979F",
"%. c #8D9F99",
"&. c #989597",
"*. c #BE8889",
"=. c #A69399",
"-. c #97A69F",
";. c #8E9EA4",
":. c #97A6A0",
">. c #95A5AB",
",. c #9DACB3",
"<. c #A0A9AF",
"1. c #A3B3AC",
"2. c #A6B8AF",
"3. c #A3B4B7",
"4. c #ABBCB3",
"5. c #A6B6B9",
"6. c #A6B8B9",
"7. c #ABBDBD",
"8. c #C78F8D",
"9. c #C6B6AF",
"0. c #B2C5BB",
"q. c #B6C9BF",
"w. c #ADC3C0",
"e. c #B3C6C2",
"r. c #B5C8C3",
"t. c #BACDC4",
"y. c #BED2C7",
"u. c #BED2CA",
"i. c #C0CCC5",
"p. c #C0D2C7",
"a. c #C2D5CC",
"s. c #C5D9CE",
"d. c #C7DCD0",
"f. c #C9DED1",
"g. c #CBE1D5",
"h. c #D4E4DB",
"j. c #DBE9E1",
"k. c #E9F1EC",
"l. c #F8FBF9",
"z. c None",
/* pixels */
"z.z.z.z.z.z.z.z.z.z.z.z.z.z.z.z.z.z.z.z.z.z.z.z.z.z.z.z.z.z.z.z.",
"z.z.z.z.z.z.z.z.z.z.z.z.z.z.z.z.z.z.z.z.z.z.z.z.z.z.z.z.z.z.z.z.",
"z.z.z.z.z.z.z.z.z.z.z.z.z.z.z.z.z.z.z.z.z.z.z.z.z.z.z.z.z.z.z.z.",
"z.z.z.z.z.z.z.z.z.z.z.z.z.z.z.z.z.z.z.z.z.z.z.z.z.z.z.z.z.z.z.z.",
"z.z.z.z.z.z.z.z.z.z.z.z.z.z.z.z.z.z.z.z.z.z.z.z.z.z.z.z.z.z.z.z.",
"z.z.z.z.z.z.z.z.z.z.z.z.z.z.z.z.z.z.z.z.z.z.z.z.z.z.z.z.z.z.z.z.",
"z.z.z.z.z.z.z.z.z.z.z.z.z.z.z.z.z.z.z.z.z.z.z.z.z.z.z.z.z.z.z.z.",
"z.z.z.z.z.z.z.z.z.z.z.z.z.z.z.z.z.z.z.z.z.z.z.z.z.z.z.z.z.z.z.z.",
"z.z.z.z.z.z.z.z.z.z.3.t.d.d.d.d.s.f.f.s.z.z.z.z.z.z.z.z.z.z.z.z.",
"z.z.z.z.z.z.z.z.z.z.e.u.d.f.d.d.f.s.f.f.s.z.z.z.z.z.z.z.z.z.z.z.",
"z.z.z.z.z.z.z.z.z.z.s.h.j.h.f.d.f.s.s.f.s.r.6.z.z.z.z.z.z.z.z.z.",
"z.z.z.z.z.z.z.z.z.6.a.k.l.k.f.d.f.f.d.d.d.s.r.6.z.z.z.z.z.z.z.z.",
"z.z.z.z.z.z.z.z.z.5.a.k.l.k.f.f.f.s.g.s.f.s.s.u.z.z.z.z.z.z.z.z.",
"z.z.z.z.z.z.z.z.z.6.u.h.j.h.d.a.u.s.g.s.f.s.s.a.z.z.z.z.z.z.z.z.",
"z.z.z.z.z.z.z.z.z.6.u.d.d.d.e.X.F -.s.s.f.s.:.F z.z.z.z.z.z.z.z.",
"z.z.z.z.z.z.z.z.z.3.e.s.d.0.K < # F u.g.a.:.c # z.z.z.z.z.z.z.z.",
"z.z.z.z.z.z.z.z.z.,.5.u.d.#.1   o C u.g.q.m O   z.z.z.z.z.z.z.z.",
"z.z.z.z.z.z.z.z.z.;.;.e.d.#.6 # < | d.g.q.m @ . z.z.z.z.z.z.z.z.",
"z.z.z.z.z.z.z.z.z.g c O.0.4.#.o.o.1.u.f.y.-.Z z.z.z.z.z.z.z.z.z.",
"z.z.z.z.z.z.z.z.z.0 s M C +.u.f.s.-.%.2.+.1.f.z.z.z.z.z.z.z.z.z.",
"z.z.z.z.z.z.z.z.8.] Y 9 w N X.%.0.S C o.n o.z.z.z.z.z.z.z.z.z.z.",
"z.z.z.z.z.z.z.f.i.&.M a Q W e i H n j D 7 [ 9.z.z.z.z.z.z.z.z.z.",
"z.z.z.z.z.z.s.s.s.w.o.x T ~ Q W p 3 2 4 3 ` *.,.z.z.z.z.z.z.z.z.",
"z.z.z.z.z.z.7.6.3.3.>...g 0 ! ( R I I I T } =.,.z.z.z.z.z.z.z.z.",
"z.z.z.z.z.z.z.G m b V b 5 & 9 ! ( _ _ _ / ' G z.z.z.z.z.z.z.z.z.",
"z.z.z.z.z.z.z.m v v b v 5 X + 9 P I I I L ; h z.z.z.z.z.z.z.z.z.",
"z.z.z.z.z.z.z.z.0.0.0.4.A * % : = q u y , - A p.z.z.z.z.z.z.z.z.",
"z.z.z.z.z.z.z.g.g.g.g.t.{ p w w r B +.| d p  .a.z.z.z.z.z.z.z.z.",
"z.z.z.z.z.z.z.z.s.f.q.K y - - - ; y v k 3 , J y.z.z.z.z.z.z.z.z.",
"z.z.z.z.z.z.z.z.z.4.S 1 . . X z.. . . . . O l z.z.z.z.z.z.z.z.z.",
"z.z.z.z.z.z.z.z.z.z.O X . z.z.z.z.z.z.. . . z.z.z.z.z.z.z.z.z.z.",
"z.z.z.z.z.z.z.z.z.z.. . . z.z.z.z.z.z.. . z.z.z.z.z.z.z.z.z.z.z."
};
