/* XPM */
static char *result[] = {
/* columns rows colors chars-per-pixel */
"32 32 6 1 ",
"  c #06050D",
". c #333941",
"X c #4A5462",
"o c #6D758D",
"O c #9BABB2",
"+ c white",
/* pixels */
"                                ",
" ..XX..XXXoooooooooooXX. XooX.. ",
" .OOOOOoooOOOOoooooooooo.oooooX ",
" XOooooooooooooooooooooo.XooooX ",
" XOooooooooooooooooooooo.XoooX. ",
" XOoooooooooooooooooooooo.ooX.  ",
" Xooooooooooooooooooooooo.Xo. o ",
" XoooooooooooooooooooooooO.X.OX ",
" ooooooooooooooooooooooooO..OoX ",
" oooooooooooooooooooooooooOOooo ",
" oooooooooooooooooooooooooooooo ",
" .ooooooooooooooooooooooooooooo ",
" ..oooooooooooooooooooooXoooooX ",
" X..ooooooooooooooooooooXXooooX ",
" XXX.oooooooooooooooooXooooooo. ",
" XXXooooooooooooooooooXooooooX. ",
" XXooooooooooooooooooXoooooooX. ",
" ooooooooooooooooooooXoooXoooO. ",
" oooooooooooooooooooooooX.oooo. ",
" XXXooooooooooooooooooX..XooooX ",
" XOOOoooooooooooooooo...XoooooO ",
" oooooooooooooooooooo..XXoooooo ",
" oooooooooooooooooooo.XXXoooooo ",
" ooooXoooooooooooooooXXoooooooo ",
" oooXXoooooooooooooooXooooooooo ",
" ooooXooooooooooooooooooooooooo ",
" oooooooXoooooooooooooooooooooX ",
" XoooooXXoooooooooooooooooooooX ",
" XoooooXXooooooooooooXoooooooXX ",
" .XoooooooooooooooooOXooooooX.. ",
" ..XXXXooXooooooXXXX..XXoooXX.. ",
"                                "
};
